<?xml version="1.0" encoding="UTF-8"?>
<svg xmlns="http://www.w3.org/2000/svg" xmlns:xlink="http://www.w3.org/1999/xlink" width="1600pt" height="860pt" viewBox="0 0 1600 860" version="1.1">
<g id="surface1">
<path style=" stroke:none;fill-rule:nonzero;fill:rgb(0%,0%,0%);fill-opacity:1;" d="M 32.546875 23.488281 L -0.265625 46.980469 L 0.53125 56.910156 L 1.335938 66.839844 L 48.023438 33.421875 L 94.710938 0 L 65.363281 0 Z M 32.546875 23.488281 "/>
<path style=" stroke:none;fill-rule:nonzero;fill:rgb(0%,0%,0%);fill-opacity:1;" d="M 72.570312 52.136719 L -0.265625 104.269531 L 0.53125 114.203125 L 1.335938 124.132812 L 174.753906 0 L 145.40625 0 Z M 72.570312 52.136719 "/>
<path style=" stroke:none;fill-rule:nonzero;fill:rgb(0%,0%,0%);fill-opacity:1;" d="M 112.589844 80.78125 L -0.265625 161.5625 L 0.53125 171.492188 L 1.335938 181.425781 L 254.792969 0 L 225.445312 0 Z M 112.589844 80.78125 "/>
<path style=" stroke:none;fill-rule:nonzero;fill:rgb(0%,0%,0%);fill-opacity:1;" d="M 152.613281 109.429688 L -0.265625 218.855469 L 0.53125 228.785156 L 1.335938 238.71875 L 334.835938 0 L 305.488281 0 Z M 152.613281 109.429688 "/>
<path style=" stroke:none;fill-rule:nonzero;fill:rgb(0%,0%,0%);fill-opacity:1;" d="M 192.628906 138.074219 L -0.265625 276.148438 L 0.53125 286.078125 L 1.335938 296.007812 L 208.101562 148.003906 L 414.875 0 L 385.527344 0 Z M 192.628906 138.074219 "/>
<path style=" stroke:none;fill-rule:nonzero;fill:rgb(0%,0%,0%);fill-opacity:1;" d="M 232.648438 166.722656 L -0.265625 333.4375 L 0.53125 343.367188 L 1.335938 353.300781 L 248.125 176.652344 L 494.914062 0 L 465.566406 0 Z M 232.648438 166.722656 "/>
<path style=" stroke:none;fill-rule:nonzero;fill:rgb(0%,0%,0%);fill-opacity:1;" d="M 272.667969 195.367188 L -0.265625 390.730469 L 0.53125 400.660156 L 1.335938 410.59375 L 288.144531 205.292969 L 574.957031 0 L 545.609375 0 Z M 272.667969 195.367188 "/>
<path style=" stroke:none;fill-rule:nonzero;fill:rgb(0%,0%,0%);fill-opacity:1;" d="M 312.691406 224.011719 L -0.265625 448.019531 L 0.53125 457.953125 L 1.335938 467.882812 L 654.996094 0 L 625.644531 0 Z M 312.691406 224.011719 "/>
<path style=" stroke:none;fill-rule:nonzero;fill:rgb(0%,0%,0%);fill-opacity:1;" d="M 352.710938 252.65625 L -0.265625 505.3125 L 0.53125 515.246094 L 1.335938 525.175781 L 368.183594 262.585938 L 735.035156 0 L 705.6875 0 Z M 352.710938 252.65625 "/>
<path style=" stroke:none;fill-rule:nonzero;fill:rgb(0%,0%,0%);fill-opacity:1;" d="M 392.730469 281.304688 L -0.265625 562.605469 L 0.53125 572.539062 L 1.335938 582.464844 L 408.203125 291.234375 L 815.074219 0 L 785.726562 0 Z M 392.730469 281.304688 "/>
<path style=" stroke:none;fill-rule:nonzero;fill:rgb(0%,0%,0%);fill-opacity:1;" d="M 432.75 309.949219 L -0.265625 619.898438 L 0.53125 629.828125 L 1.335938 639.757812 L 448.226562 319.878906 L 895.113281 0 L 865.761719 0 Z M 432.75 309.949219 "/>
<path style=" stroke:none;fill-rule:nonzero;fill:rgb(0%,0%,0%);fill-opacity:1;" d="M 472.769531 338.59375 L -0.265625 677.191406 L 0.53125 687.121094 L 1.335938 697.050781 L 975.152344 0 L 945.808594 0 Z M 472.769531 338.59375 "/>
<path style=" stroke:none;fill-rule:nonzero;fill:rgb(0%,0%,0%);fill-opacity:1;" d="M 512.792969 367.238281 L -0.265625 734.484375 L 0.53125 744.414062 L 1.335938 754.347656 L 1055.195312 0 L 1025.847656 0 Z M 512.792969 367.238281 "/>
<path style=" stroke:none;fill-rule:nonzero;fill:rgb(0%,0%,0%);fill-opacity:1;" d="M 552.808594 395.886719 L -0.265625 791.773438 L 0.53125 801.707031 L 1.335938 811.636719 L 568.28125 405.820312 L 1135.238281 0 L 1105.890625 0 Z M 552.808594 395.886719 "/>
<path style=" stroke:none;fill-rule:nonzero;fill:rgb(0%,0%,0%);fill-opacity:1;" d="M 592.832031 424.53125 C 91.777344 783.179688 0 849.640625 0 854.222656 C 0 858.617188 1.066406 859.378906 7.46875 859.378906 C 13.605469 859.378906 107.253906 793.113281 614.972656 429.691406 L 1215.277344 0 L 1185.925781 0 Z M 592.832031 424.53125 "/>
<path style=" stroke:none;fill-rule:nonzero;fill:rgb(0%,0%,0%);fill-opacity:1;" d="M 665.667969 429.691406 L 65.363281 859.378906 L 94.710938 859.378906 L 695.011719 429.691406 L 1295.3125 0 L 1265.964844 0 Z M 665.667969 429.691406 "/>
<path style=" stroke:none;fill-rule:nonzero;fill:rgb(0%,0%,0%);fill-opacity:1;" d="M 745.707031 429.691406 L 145.40625 859.378906 L 174.753906 859.378906 L 775.058594 429.691406 L 1375.355469 0 L 1346.007812 0 Z M 745.707031 429.691406 "/>
<path style=" stroke:none;fill-rule:nonzero;fill:rgb(0%,0%,0%);fill-opacity:1;" d="M 825.746094 429.691406 L 225.445312 859.378906 L 254.792969 859.378906 L 855.09375 429.691406 L 1455.394531 0 L 1426.046875 0 Z M 825.746094 429.691406 "/>
<path style=" stroke:none;fill-rule:nonzero;fill:rgb(0%,0%,0%);fill-opacity:1;" d="M 905.789062 429.691406 L 305.488281 859.378906 L 334.835938 859.378906 L 935.136719 429.691406 L 1535.4375 0 L 1506.085938 0 Z M 905.789062 429.691406 "/>
<path style=" stroke:none;fill-rule:nonzero;fill:rgb(0%,0%,0%);fill-opacity:1;" d="M 985.828125 429.691406 L 385.527344 859.378906 L 414.875 859.378906 L 1007.96875 434.84375 C 1509.023438 76.199219 1600.800781 9.742188 1600.800781 5.160156 C 1600.800781 0.765625 1599.730469 0 1593.332031 0 C 1587.195312 0 1493.550781 66.265625 985.828125 429.691406 Z M 985.828125 429.691406 "/>
<path style=" stroke:none;fill-rule:nonzero;fill:rgb(0%,0%,0%);fill-opacity:1;" d="M 1032.515625 453.558594 L 465.566406 859.378906 L 494.914062 859.378906 L 1601.066406 67.605469 L 1600.269531 57.671875 L 1599.464844 47.742188 Z M 1032.515625 453.558594 "/>
<path style=" stroke:none;fill-rule:nonzero;fill:rgb(0%,0%,0%);fill-opacity:1;" d="M 1072.539062 482.207031 L 545.609375 859.378906 L 574.957031 859.378906 L 1088.011719 492.136719 L 1601.066406 124.898438 L 1600.269531 114.964844 L 1599.464844 105.035156 Z M 1072.539062 482.207031 "/>
<path style=" stroke:none;fill-rule:nonzero;fill:rgb(0%,0%,0%);fill-opacity:1;" d="M 1112.554688 510.851562 L 625.644531 859.378906 L 654.996094 859.378906 L 1128.03125 520.785156 L 1601.066406 182.1875 L 1600.269531 172.257812 L 1599.464844 162.324219 Z M 1112.554688 510.851562 "/>
<path style=" stroke:none;fill-rule:nonzero;fill:rgb(0%,0%,0%);fill-opacity:1;" d="M 1152.578125 539.5 L 705.6875 859.378906 L 735.035156 859.378906 L 1168.054688 549.433594 L 1601.066406 239.480469 L 1600.269531 229.550781 L 1599.464844 219.617188 Z M 1152.578125 539.5 "/>
<path style=" stroke:none;fill-rule:nonzero;fill:rgb(0%,0%,0%);fill-opacity:1;" d="M 1192.597656 568.144531 L 785.726562 859.378906 L 815.074219 859.378906 L 1208.070312 578.078125 L 1601.066406 296.769531 L 1600.269531 286.839844 L 1599.464844 276.910156 Z M 1192.597656 568.144531 "/>
<path style=" stroke:none;fill-rule:nonzero;fill:rgb(0%,0%,0%);fill-opacity:1;" d="M 1232.617188 596.792969 L 865.761719 859.378906 L 895.113281 859.378906 L 1248.089844 606.722656 L 1601.066406 354.0625 L 1600.269531 344.132812 L 1599.464844 334.203125 Z M 1232.617188 596.792969 "/>
<path style=" stroke:none;fill-rule:nonzero;fill:rgb(0%,0%,0%);fill-opacity:1;" d="M 1272.636719 625.4375 L 945.808594 859.378906 L 975.152344 859.378906 L 1601.066406 411.355469 L 1600.269531 401.425781 L 1599.464844 391.496094 Z M 1272.636719 625.4375 "/>
<path style=" stroke:none;fill-rule:nonzero;fill:rgb(0%,0%,0%);fill-opacity:1;" d="M 1312.65625 654.085938 L 1025.847656 859.378906 L 1055.195312 859.378906 L 1328.132812 664.015625 L 1601.066406 468.648438 L 1600.269531 458.71875 L 1599.464844 448.789062 Z M 1312.65625 654.085938 "/>
<path style=" stroke:none;fill-rule:nonzero;fill:rgb(0%,0%,0%);fill-opacity:1;" d="M 1352.675781 682.730469 L 1105.890625 859.378906 L 1135.238281 859.378906 L 1601.066406 525.941406 L 1600.269531 516.011719 L 1599.464844 506.078125 Z M 1352.675781 682.730469 "/>
<path style=" stroke:none;fill-rule:nonzero;fill:rgb(0%,0%,0%);fill-opacity:1;" d="M 1392.699219 711.375 L 1185.925781 859.378906 L 1215.277344 859.378906 L 1601.066406 583.234375 L 1600.269531 573.304688 L 1599.464844 563.371094 Z M 1392.699219 711.375 "/>
<path style=" stroke:none;fill-rule:nonzero;fill:rgb(0%,0%,0%);fill-opacity:1;" d="M 1432.71875 740.019531 L 1265.964844 859.378906 L 1295.3125 859.378906 L 1601.066406 640.523438 L 1600.269531 630.59375 L 1599.464844 620.664062 Z M 1432.71875 740.019531 "/>
<path style=" stroke:none;fill-rule:nonzero;fill:rgb(0%,0%,0%);fill-opacity:1;" d="M 1472.738281 768.667969 L 1346.007812 859.378906 L 1375.355469 859.378906 L 1488.207031 778.597656 L 1601.066406 697.816406 L 1600.269531 687.886719 L 1599.464844 677.953125 Z M 1472.738281 768.667969 "/>
<path style=" stroke:none;fill-rule:nonzero;fill:rgb(0%,0%,0%);fill-opacity:1;" d="M 1512.757812 797.3125 L 1426.046875 859.378906 L 1455.394531 859.378906 L 1528.234375 807.242188 L 1601.066406 755.109375 L 1600.269531 745.179688 L 1599.464844 735.246094 Z M 1512.757812 797.3125 "/>
<path style=" stroke:none;fill-rule:nonzero;fill:rgb(0%,0%,0%);fill-opacity:1;" d="M 1552.773438 825.960938 L 1506.085938 859.378906 L 1535.4375 859.378906 L 1568.25 835.890625 L 1601.066406 812.398438 L 1600.269531 802.46875 L 1599.464844 792.539062 Z M 1552.773438 825.960938 "/>
</g>
</svg>
